<mxfile host="app.diagrams.net" modified="2022-11-03T00:34:46.323Z" agent="5.0 (Macintosh; Intel Mac OS X 10_15_7) AppleWebKit/537.36 (KHTML, like Gecko) Chrome/107.0.0.0 Safari/537.36" etag="q30AWk4QIzreh8PCyCR0" version="20.5.1" type="github">
  <diagram id="d9PZY-7dogcwrRNWabyt" name="第 1 页">
    <mxGraphModel dx="1378" dy="721" grid="0" gridSize="10" guides="1" tooltips="1" connect="1" arrows="0" fold="1" page="1" pageScale="1" pageWidth="1700" pageHeight="1100" math="0" shadow="0">
      <root>
        <mxCell id="0" />
        <mxCell id="1" parent="0" />
        <mxCell id="VKHz0DPVssEQejxsud0r-1" value="CDP对接SMC" style="rounded=0;whiteSpace=wrap;html=1;" vertex="1" parent="1">
          <mxGeometry x="549" y="16" width="187" height="29" as="geometry" />
        </mxCell>
        <mxCell id="VKHz0DPVssEQejxsud0r-2" value="创建cdp人群" style="rounded=0;whiteSpace=wrap;html=1;" vertex="1" parent="1">
          <mxGeometry x="272" y="114" width="24" height="135" as="geometry" />
        </mxCell>
        <mxCell id="VKHz0DPVssEQejxsud0r-3" value="处理人群数据" style="rounded=0;whiteSpace=wrap;html=1;" vertex="1" parent="1">
          <mxGeometry x="632" y="107" width="25" height="135" as="geometry" />
        </mxCell>
        <mxCell id="VKHz0DPVssEQejxsud0r-4" value="推送数据" style="rounded=0;whiteSpace=wrap;html=1;" vertex="1" parent="1">
          <mxGeometry x="960" y="112" width="20" height="137" as="geometry" />
        </mxCell>
        <mxCell id="VKHz0DPVssEQejxsud0r-16" value="服务端" style="rounded=0;whiteSpace=wrap;html=1;" vertex="1" parent="1">
          <mxGeometry x="421" y="299" width="24" height="115" as="geometry" />
        </mxCell>
        <mxCell id="VKHz0DPVssEQejxsud0r-17" value="s&lt;br&gt;p&lt;br&gt;a&lt;br&gt;r&lt;br&gt;k" style="rounded=0;whiteSpace=wrap;html=1;" vertex="1" parent="1">
          <mxGeometry x="633" y="299" width="24" height="115" as="geometry" />
        </mxCell>
        <mxCell id="VKHz0DPVssEQejxsud0r-18" value="a&lt;br&gt;z&lt;br&gt;k&lt;br&gt;a&lt;br&gt;b&lt;br&gt;a&lt;br&gt;n" style="rounded=0;whiteSpace=wrap;html=1;" vertex="1" parent="1">
          <mxGeometry x="738" y="301" width="24" height="115" as="geometry" />
        </mxCell>
        <mxCell id="VKHz0DPVssEQejxsud0r-19" value="获取人群推送条件" style="rounded=0;whiteSpace=wrap;html=1;" vertex="1" parent="1">
          <mxGeometry x="303" y="464" width="23" height="131" as="geometry" />
        </mxCell>
        <mxCell id="VKHz0DPVssEQejxsud0r-20" value="权限验证" style="rounded=0;whiteSpace=wrap;html=1;" vertex="1" parent="1">
          <mxGeometry x="422" y="462" width="22" height="131" as="geometry" />
        </mxCell>
        <mxCell id="VKHz0DPVssEQejxsud0r-21" value="发起人群计算任务" style="rounded=0;whiteSpace=wrap;html=1;" vertex="1" parent="1">
          <mxGeometry x="499" y="467" width="24" height="133" as="geometry" />
        </mxCell>
        <mxCell id="VKHz0DPVssEQejxsud0r-22" value="人群计算" style="rounded=0;whiteSpace=wrap;html=1;" vertex="1" parent="1">
          <mxGeometry x="586" y="467" width="24" height="132" as="geometry" />
        </mxCell>
        <mxCell id="VKHz0DPVssEQejxsud0r-23" value="by&lt;br&gt;设备类型生成文件" style="rounded=0;whiteSpace=wrap;html=1;" vertex="1" parent="1">
          <mxGeometry x="641" y="465.5" width="22" height="132" as="geometry" />
        </mxCell>
        <mxCell id="VKHz0DPVssEQejxsud0r-24" value="返回计算成功标志" style="rounded=0;whiteSpace=wrap;html=1;" vertex="1" parent="1">
          <mxGeometry x="699" y="467" width="22" height="132" as="geometry" />
        </mxCell>
        <mxCell id="VKHz0DPVssEQejxsud0r-25" value="任务调度" style="rounded=0;whiteSpace=wrap;html=1;" vertex="1" parent="1">
          <mxGeometry x="738" y="468.5" width="26" height="129" as="geometry" />
        </mxCell>
        <mxCell id="VKHz0DPVssEQejxsud0r-26" value="分配计算资源" style="rounded=0;whiteSpace=wrap;html=1;" vertex="1" parent="1">
          <mxGeometry x="794" y="469" width="24" height="126" as="geometry" />
        </mxCell>
        <mxCell id="VKHz0DPVssEQejxsud0r-27" value="获取待推送的数据" style="rounded=0;whiteSpace=wrap;html=1;" vertex="1" parent="1">
          <mxGeometry x="871" y="470" width="24" height="123" as="geometry" />
        </mxCell>
        <mxCell id="VKHz0DPVssEQejxsud0r-28" value="推送数据" style="rounded=0;whiteSpace=wrap;html=1;" vertex="1" parent="1">
          <mxGeometry x="935" y="469" width="25" height="122" as="geometry" />
        </mxCell>
        <mxCell id="VKHz0DPVssEQejxsud0r-29" value="服务端" style="rounded=0;whiteSpace=wrap;html=1;" vertex="1" parent="1">
          <mxGeometry x="902" y="293" width="24" height="115" as="geometry" />
        </mxCell>
        <mxCell id="VKHz0DPVssEQejxsud0r-30" value="S&lt;br&gt;M&lt;br&gt;C&lt;br&gt;系统" style="rounded=0;whiteSpace=wrap;html=1;" vertex="1" parent="1">
          <mxGeometry x="992" y="293" width="24" height="115" as="geometry" />
        </mxCell>
        <mxCell id="VKHz0DPVssEQejxsud0r-31" value="接收数据" style="rounded=0;whiteSpace=wrap;html=1;" vertex="1" parent="1">
          <mxGeometry x="982" y="470" width="24" height="121" as="geometry" />
        </mxCell>
        <mxCell id="VKHz0DPVssEQejxsud0r-32" value="人群计算" style="rounded=0;whiteSpace=wrap;html=1;" vertex="1" parent="1">
          <mxGeometry x="1037" y="471" width="25" height="119" as="geometry" />
        </mxCell>
        <mxCell id="VKHz0DPVssEQejxsud0r-33" value="" style="endArrow=none;html=1;rounded=0;exitX=0.5;exitY=0;exitDx=0;exitDy=0;entryX=0.5;entryY=0;entryDx=0;entryDy=0;" edge="1" parent="1" source="VKHz0DPVssEQejxsud0r-2" target="VKHz0DPVssEQejxsud0r-4">
          <mxGeometry width="50" height="50" relative="1" as="geometry">
            <mxPoint x="612" y="298" as="sourcePoint" />
            <mxPoint x="910" y="70" as="targetPoint" />
            <Array as="points">
              <mxPoint x="284" y="66" />
              <mxPoint x="970" y="68" />
            </Array>
          </mxGeometry>
        </mxCell>
        <mxCell id="VKHz0DPVssEQejxsud0r-34" value="" style="endArrow=none;html=1;rounded=0;entryX=0.5;entryY=1;entryDx=0;entryDy=0;" edge="1" parent="1" target="VKHz0DPVssEQejxsud0r-1">
          <mxGeometry width="50" height="50" relative="1" as="geometry">
            <mxPoint x="643" y="68" as="sourcePoint" />
            <mxPoint x="654" y="46" as="targetPoint" />
            <Array as="points" />
          </mxGeometry>
        </mxCell>
        <mxCell id="VKHz0DPVssEQejxsud0r-35" value="" style="endArrow=none;html=1;rounded=0;exitX=0.5;exitY=0;exitDx=0;exitDy=0;entryX=0.5;entryY=0;entryDx=0;entryDy=0;" edge="1" parent="1" source="VKHz0DPVssEQejxsud0r-16" target="VKHz0DPVssEQejxsud0r-18">
          <mxGeometry width="50" height="50" relative="1" as="geometry">
            <mxPoint x="612" y="298" as="sourcePoint" />
            <mxPoint x="662" y="248" as="targetPoint" />
            <Array as="points">
              <mxPoint x="433" y="272" />
              <mxPoint x="750" y="274" />
            </Array>
          </mxGeometry>
        </mxCell>
        <mxCell id="VKHz0DPVssEQejxsud0r-36" value="" style="endArrow=none;html=1;rounded=0;entryX=0.5;entryY=1;entryDx=0;entryDy=0;" edge="1" parent="1" target="VKHz0DPVssEQejxsud0r-3">
          <mxGeometry width="50" height="50" relative="1" as="geometry">
            <mxPoint x="645" y="272" as="sourcePoint" />
            <mxPoint x="662" y="248" as="targetPoint" />
          </mxGeometry>
        </mxCell>
        <mxCell id="VKHz0DPVssEQejxsud0r-39" value="" style="endArrow=none;html=1;rounded=0;entryX=0.5;entryY=0;entryDx=0;entryDy=0;" edge="1" parent="1" target="VKHz0DPVssEQejxsud0r-21">
          <mxGeometry width="50" height="50" relative="1" as="geometry">
            <mxPoint x="313" y="464" as="sourcePoint" />
            <mxPoint x="363" y="414" as="targetPoint" />
            <Array as="points">
              <mxPoint x="313" y="435" />
              <mxPoint x="511" y="437" />
            </Array>
          </mxGeometry>
        </mxCell>
        <mxCell id="VKHz0DPVssEQejxsud0r-42" value="" style="endArrow=none;html=1;rounded=0;" edge="1" parent="1">
          <mxGeometry width="50" height="50" relative="1" as="geometry">
            <mxPoint x="433" y="437" as="sourcePoint" />
            <mxPoint x="433" y="414" as="targetPoint" />
          </mxGeometry>
        </mxCell>
        <mxCell id="VKHz0DPVssEQejxsud0r-43" value="" style="endArrow=none;html=1;rounded=0;entryX=0.5;entryY=0;entryDx=0;entryDy=0;" edge="1" parent="1" target="VKHz0DPVssEQejxsud0r-24">
          <mxGeometry width="50" height="50" relative="1" as="geometry">
            <mxPoint x="599" y="467" as="sourcePoint" />
            <mxPoint x="649" y="417" as="targetPoint" />
            <Array as="points">
              <mxPoint x="599" y="439" />
              <mxPoint x="710" y="439" />
            </Array>
          </mxGeometry>
        </mxCell>
        <mxCell id="VKHz0DPVssEQejxsud0r-44" value="" style="endArrow=none;html=1;rounded=0;entryX=0.5;entryY=1;entryDx=0;entryDy=0;" edge="1" parent="1" target="VKHz0DPVssEQejxsud0r-17">
          <mxGeometry width="50" height="50" relative="1" as="geometry">
            <mxPoint x="645" y="439" as="sourcePoint" />
            <mxPoint x="652" y="414" as="targetPoint" />
          </mxGeometry>
        </mxCell>
        <mxCell id="VKHz0DPVssEQejxsud0r-47" value="" style="endArrow=none;html=1;rounded=0;" edge="1" parent="1">
          <mxGeometry width="50" height="50" relative="1" as="geometry">
            <mxPoint x="807" y="467" as="sourcePoint" />
            <mxPoint x="741" y="470" as="targetPoint" />
            <Array as="points">
              <mxPoint x="807" y="446" />
              <mxPoint x="741" y="446" />
            </Array>
          </mxGeometry>
        </mxCell>
        <mxCell id="VKHz0DPVssEQejxsud0r-48" value="" style="endArrow=none;html=1;rounded=0;entryX=0.5;entryY=0;entryDx=0;entryDy=0;" edge="1" parent="1" target="VKHz0DPVssEQejxsud0r-28">
          <mxGeometry width="50" height="50" relative="1" as="geometry">
            <mxPoint x="883" y="470" as="sourcePoint" />
            <mxPoint x="933" y="420" as="targetPoint" />
            <Array as="points">
              <mxPoint x="883" y="438" />
              <mxPoint x="947" y="438" />
            </Array>
          </mxGeometry>
        </mxCell>
        <mxCell id="VKHz0DPVssEQejxsud0r-49" value="" style="endArrow=none;html=1;rounded=0;" edge="1" parent="1">
          <mxGeometry width="50" height="50" relative="1" as="geometry">
            <mxPoint x="752" y="446" as="sourcePoint" />
            <mxPoint x="752" y="417" as="targetPoint" />
          </mxGeometry>
        </mxCell>
        <mxCell id="VKHz0DPVssEQejxsud0r-50" value="" style="endArrow=none;html=1;rounded=0;" edge="1" parent="1">
          <mxGeometry width="50" height="50" relative="1" as="geometry">
            <mxPoint x="992" y="470" as="sourcePoint" />
            <mxPoint x="1050" y="470" as="targetPoint" />
            <Array as="points">
              <mxPoint x="992" y="442" />
              <mxPoint x="1050" y="442" />
            </Array>
          </mxGeometry>
        </mxCell>
        <mxCell id="VKHz0DPVssEQejxsud0r-51" value="" style="endArrow=none;html=1;rounded=0;" edge="1" parent="1">
          <mxGeometry width="50" height="50" relative="1" as="geometry">
            <mxPoint x="916" y="438" as="sourcePoint" />
            <mxPoint x="916" y="408" as="targetPoint" />
          </mxGeometry>
        </mxCell>
        <mxCell id="VKHz0DPVssEQejxsud0r-52" value="" style="endArrow=none;html=1;rounded=0;entryX=0.5;entryY=1;entryDx=0;entryDy=0;" edge="1" parent="1" target="VKHz0DPVssEQejxsud0r-30">
          <mxGeometry width="50" height="50" relative="1" as="geometry">
            <mxPoint x="1004" y="441" as="sourcePoint" />
            <mxPoint x="1109" y="402" as="targetPoint" />
          </mxGeometry>
        </mxCell>
        <mxCell id="VKHz0DPVssEQejxsud0r-53" value="" style="endArrow=none;html=1;rounded=0;" edge="1" parent="1">
          <mxGeometry width="50" height="50" relative="1" as="geometry">
            <mxPoint x="910" y="293" as="sourcePoint" />
            <mxPoint x="1006" y="293" as="targetPoint" />
            <Array as="points">
              <mxPoint x="910" y="268" />
              <mxPoint x="1006" y="268" />
            </Array>
          </mxGeometry>
        </mxCell>
        <mxCell id="VKHz0DPVssEQejxsud0r-54" value="" style="endArrow=none;html=1;rounded=0;entryX=0.5;entryY=1;entryDx=0;entryDy=0;" edge="1" parent="1" target="VKHz0DPVssEQejxsud0r-4">
          <mxGeometry width="50" height="50" relative="1" as="geometry">
            <mxPoint x="970" y="268" as="sourcePoint" />
            <mxPoint x="1021" y="218" as="targetPoint" />
          </mxGeometry>
        </mxCell>
      </root>
    </mxGraphModel>
  </diagram>
</mxfile>
